<?xml version="1.0" encoding="utf-8"?>
<!-- Generator: Adobe Illustrator 26.0.2, SVG Export Plug-In . SVG Version: 6.00 Build 0)  -->
<svg version="1.1" id="outline" xmlns="http://www.w3.org/2000/svg" xmlns:xlink="http://www.w3.org/1999/xlink" x="0px" y="0px"
	 viewBox="0 0 430 430" style="enable-background:new 0 0 430 430;" xml:space="preserve">
<style type="text/css">
	.st0{fill:url(#SVGID_1_);}
	.st1{fill:url(#SVGID_00000101819221387105705070000017045916785383134108_);}
	.st2{fill:url(#SVGID_00000009559059027405602770000007832512132999297176_);}
	.st3{fill:url(#SVGID_00000020360591164273160840000018315514990621526673_);}
	.st4{fill:url(#SVGID_00000098220209670934815550000002034022312631351945_);}
	.st5{fill:url(#SVGID_00000017516854298091625440000000946423566035239055_);}
	.st6{fill:url(#SVGID_00000069376675154920753970000008775144696757701564_);}
	.st7{fill:url(#SVGID_00000088106348753513517510000007426031468049080228_);}
	.st8{fill:url(#SVGID_00000044175599193383160790000011283527635466266553_);}
	.st9{fill:url(#SVGID_00000086679686822253291000000007249349525089312401_);}
	.st10{fill:url(#SVGID_00000099657105318745403860000000650428163680342409_);}
	.st11{fill:url(#SVGID_00000133495418814008576620000004743116182641117333_);}
	.st12{fill:url(#SVGID_00000168113135553837873310000000168254860172630433_);}
	.st13{fill:url(#SVGID_00000074439091581059265510000002777203657586131338_);}
	.st14{fill:url(#SVGID_00000070824178985126844000000003710868069974155917_);}
	.st15{fill:url(#SVGID_00000072979540572083639560000005774123759158164403_);}
	.st16{fill:url(#SVGID_00000068650014569098645070000005625542971951239854_);}
	.st17{fill:url(#SVGID_00000029740287772997281000000005014697106957431482_);}
	.st18{fill:url(#SVGID_00000181071814936916436380000009352567386671201199_);}
	.st19{fill:url(#SVGID_00000003093820737028608450000008084915125382035601_);}
	.st20{fill:url(#SVGID_00000134943995383947679300000015624218605404261250_);}
	.st21{fill:url(#SVGID_00000054229042376680629070000014269857147341784240_);}
	.st22{fill:url(#SVGID_00000006679915798721082820000006483136958297368992_);}
	.st23{fill:url(#SVGID_00000105415106708446198940000005332485115154452354_);}
	.st24{fill:url(#SVGID_00000035532631773357150490000011396675179294243255_);}
	.st25{fill:url(#SVGID_00000070076199611477749800000017227894014507647418_);}
	.st26{fill:url(#SVGID_00000170260138068128948320000001061729488362208133_);}
	.st27{fill:url(#SVGID_00000155858397617217967720000016666784194142317735_);}
	.st28{fill:url(#SVGID_00000037655975272332995830000014914926903205056654_);}
	.st29{fill:url(#SVGID_00000091004554372883637030000012713616051365982859_);}
	.st30{fill:url(#SVGID_00000121985521048631267160000005210338942477356957_);}
	.st31{fill:url(#SVGID_00000078723630501962386880000011424687092916218282_);}
	.st32{fill:url(#SVGID_00000002376420801605386190000018037732832532411523_);}
	.st33{fill:url(#SVGID_00000041979018618972275650000010215483763899358605_);}
	.st34{fill:url(#SVGID_00000021106309218186404820000017354058773918089600_);}
	.st35{fill:url(#SVGID_00000093883264644228405670000014138902082530378373_);}
	.st36{fill:url(#SVGID_00000101065144785627299160000007135761216252379302_);}
	.st37{fill:url(#SVGID_00000022528465605773315840000002958589358490430384_);}
	.st38{fill:url(#SVGID_00000088826410192311838320000000715627782692991367_);}
	.st39{fill:url(#SVGID_00000073697535708969258670000000782401850488281242_);}
	.st40{fill:url(#SVGID_00000108267799826283857580000008362149195799995269_);}
	.st41{fill:url(#SVGID_00000091734999231627498070000004618712176517542043_);}
	.st42{fill:url(#SVGID_00000076583526530574138000000009931596602537296036_);}
	.st43{fill:url(#SVGID_00000180367189186665892900000010805911103416498056_);}
	.st44{fill:url(#SVGID_00000021093045135463115030000008873561710197351100_);}
	.st45{fill:url(#SVGID_00000052821047703347468330000010420111294962736541_);}
	.st46{fill:url(#SVGID_00000119102300272140337160000003171131094376611226_);}
	.st47{fill:url(#SVGID_00000155833812385301336770000009780565861361956535_);}
	.st48{fill:url(#SVGID_00000096755637712630834940000014830357905757187515_);}
	.st49{fill:url(#SVGID_00000177454931953800233610000009877189932083707778_);}
	.st50{fill:url(#SVGID_00000165231112060957731610000017722672657782658741_);}
	.st51{fill:url(#SVGID_00000132069067478316907800000008090940915235399053_);}
	.st52{fill:url(#SVGID_00000055683484082164915130000011860559857921405353_);}
	.st53{fill:url(#SVGID_00000101786793972747119740000015867225197168564654_);}
	.st54{fill:url(#SVGID_00000141446166241367897950000009857297971970955944_);}
	.st55{fill:url(#SVGID_00000101089199190647653540000010462455344587619240_);}
	.st56{fill:url(#SVGID_00000100378343489364346270000001494990109677689266_);}
	.st57{fill:url(#SVGID_00000068661312808470696960000016421747732654770595_);}
</style>
<linearGradient id="SVGID_1_" gradientUnits="userSpaceOnUse" x1="90.416" y1="42.1075" x2="339.5843" y2="291.2758">
	<stop  offset="0" style="stop-color:#56dbc6"/>
	<stop  offset="1" style="stop-color:#a7c8ff"/>
</linearGradient>
<path class="st0" d="M346.12,49.32c-3.07-1.24-6.57,0.24-7.81,3.31l-72.05,178c-3.95-3.05-8.18-5.76-12.64-8.08l-9.23-22.81
	l57.63-142.61c1.24-3.07-0.24-6.57-3.31-7.81c-3.07-1.24-6.57,0.24-7.81,3.31l-52.98,131.1l-16.44-40.62l34.81-85.99
	c1.24-3.07-0.24-6.57-3.31-7.81c-3.07-1.24-6.57,0.24-7.81,3.31L215,127.13l-30.15-74.5c-1.24-3.07-4.74-4.56-7.81-3.31
	c-3.07,1.24-4.55,4.74-3.31,7.81l64.46,159.26c-7.37-2.12-15.14-3.28-23.18-3.28c-3.75,0-7.44,0.27-11.06,0.75L138.79,52.63
	c-1.24-3.07-4.74-4.56-7.81-3.31c-3.07,1.24-4.56,4.74-3.31,7.81L192,216.34c-10.38,2.96-19.93,7.86-28.26,14.29l-72.05-178
	c-1.24-3.07-4.74-4.56-7.81-3.31c-3.07,1.24-4.55,4.74-3.31,7.81l73.69,182.05c-14.39,15.08-23.26,35.49-23.26,57.93
	c0,46.32,37.68,84.01,84.01,84.01c46.32,0,84.01-37.68,84.01-84.01c0-22.45-8.87-42.85-23.26-57.93l73.69-182.05
	C350.67,54.06,349.19,50.56,346.12,49.32z M215,369.12c-39.7,0-72.01-32.3-72.01-72.01s32.3-72,72.01-72s72.01,32.3,72.01,72
	S254.7,369.12,215,369.12z M182.32,254.47c-1.94-3.33-0.86-7.58,2.47-9.53c0.02-0.01,0.12-0.07,0.13-0.08
	c3.35-1.93,7.63-0.78,9.56,2.57c1.93,3.35,0.78,7.63-2.57,9.56c-1.11,0.64-2.32,0.94-3.52,0.94
	C185.97,257.94,183.61,256.7,182.32,254.47z M207.97,243.83c0-3.87,3.11-7,6.97-7H215c0.11,0,0.21,0,0.32,0.01
	c3.74,0.14,6.73,3.22,6.73,7c0,3.87-3.13,7-7,7c-0.09,0-0.2,0-0.31-0.01C210.99,250.69,207.97,247.61,207.97,243.83z M194.54,346.83
	c-1.3,2.26-3.64,3.53-6.06,3.53c-1.17,0-2.36-0.3-3.46-0.93l-0.09-0.05c-3.35-1.93-4.5-6.21-2.57-9.56s6.21-4.5,9.56-2.57
	C195.28,339.18,196.47,343.48,194.54,346.83z M174.99,320.4c1.96,3.33,0.84,7.62-2.5,9.58c-1.11,0.65-2.33,0.96-3.53,0.96
	c-2.4,0-4.74-1.24-6.05-3.46c-0.02-0.03-0.08-0.15-0.1-0.17c-1.91-3.36-0.72-7.64,2.64-9.54
	C168.81,315.85,173.09,317.04,174.99,320.4z M162.8,266.94l0.01-0.02c1.94-3.33,6.21-4.49,9.55-2.57c3.34,1.92,4.52,6.15,2.62,9.5
	c-0.02,0.03-0.08,0.15-0.1,0.17c-1.3,2.22-3.64,3.46-6.05,3.46c-1.2,0-2.42-0.31-3.53-0.96
	C161.97,274.57,160.85,270.28,162.8,266.94z M161.72,304.34c-3.87,0-7-3.13-7-7h0c0-0.01,0-0.02,0-0.02h0c0-0.03,0-0.07,0-0.1
	c0-0.04,0-0.07,0-0.11v-0.1c0-3.87,3.13-7,7-7s7,3.13,7,7c0,0.04,0,0.08,0,0.12c0,0,0,0.01,0,0.01c0,0.03,0,0.17,0,0.2
	C168.72,301.21,165.59,304.34,161.72,304.34z M214.97,343.39c-0.07,0-0.24,0.01-0.31,0.01c-3.86,0.23-6.8,3.54-6.57,7.4
	c0.22,3.72,3.31,6.58,6.98,6.58c0.11,0,0.22,0,0.33-0.01c3.85-0.12,6.88-3.34,6.77-7.2C222.06,346.32,218.83,343.31,214.97,343.39z
	 M267.44,327.05c-0.04,0.08-0.14,0.25-0.19,0.33c-1.3,2.22-3.64,3.46-6.05,3.46c-1.2,0-2.42-0.31-3.53-0.96
	c-3.3-1.93-4.43-6.15-2.56-9.47c1.84-3.36,6.05-4.63,9.44-2.82C267.96,319.41,269.25,323.64,267.44,327.05z M267.24,266.82
	c0.01,0.02,0.08,0.13,0.09,0.16c1.87,3.39,0.64,7.64-2.75,9.51c-1.07,0.59-2.23,0.87-3.38,0.87c-2.47,0-4.86-1.31-6.13-3.62
	c-1.86-3.37-0.67-7.66,2.69-9.54C261.12,262.33,265.34,263.47,267.24,266.82z M268,290.05c3.87,0,7,3.08,7,6.95v0.1
	c0,3.87-3.13,7-7,7s-7-3.13-7-7S264.13,290.05,268,290.05z M235.49,247.56c1.82-3.41,6.05-4.7,9.46-2.88
	c0.08,0.04,0.25,0.14,0.33,0.19c3.33,1.96,4.45,6.24,2.5,9.58c-1.3,2.22-3.64,3.46-6.05,3.46c-1.16,0-2.34-0.29-3.42-0.9
	C234.95,255.16,233.68,250.95,235.49,247.56z M238.56,337.09c-0.08,0.04-0.25,0.14-0.33,0.19c-3.33,1.96-4.45,6.24-2.5,9.58
	c1.3,2.22,3.64,3.46,6.05,3.46c1.16,0,2.33-0.29,3.41-0.89c3.38-1.83,4.66-6.05,2.84-9.45
	C246.22,336.56,241.97,335.27,238.56,337.09z M223.87,274.2v45.83c0,3.31-2.69,6-6,6s-6-2.69-6-6v-31.34l-4.22,4.22
	c-2.34,2.34-6.14,2.34-8.49,0c-2.34-2.34-2.34-6.14,0-8.49l14.46-14.46c1.72-1.72,4.3-2.23,6.54-1.3
	C222.4,269.59,223.87,271.77,223.87,274.2z"/>
</svg>
